<svg width="32" height="32" viewBox="0 0 32 32" fill="none" xmlns="http://www.w3.org/2000/svg">
<path d="M4.87404 21.5569C4.61994 21.9559 4.32955 22.4274 4.11175 22.7901C3.89396 23.1528 4.00284 23.6242 4.36584 23.8419L9.33893 26.8884C9.70193 27.106 10.1738 26.9972 10.3916 26.6345C10.5731 26.3081 10.8272 25.8729 11.1176 25.4014C13.0778 22.1735 15.0743 22.5362 18.6317 24.2408L23.5684 26.562C23.9677 26.7433 24.4033 26.562 24.5848 26.1993L26.9443 20.8678C27.1258 20.5051 26.9443 20.0336 26.5813 19.8523C25.5286 19.3808 23.4596 18.4016 21.6446 17.4948C14.8928 14.3032 9.23002 14.4845 4.87404 21.5569Z" fill="url(#paint0_linear)"/>
<path d="M27.1259 9.44315C27.38 9.04419 27.6704 8.5727 27.8882 8.21001C28.106 7.84732 27.9971 7.37583 27.6341 7.15822L22.661 4.11165C22.298 3.89404 21.8261 4.00285 21.6083 4.36553C21.4268 4.69195 21.1727 5.12718 20.8823 5.59867C18.9221 8.82658 16.9256 8.46389 13.3683 6.75926L8.43149 4.43807C8.03219 4.25673 7.59657 4.43807 7.41507 4.80076L5.05558 10.1322C4.87408 10.4949 5.05558 10.9664 5.41858 11.1478C6.47127 11.6193 8.54036 12.5985 10.3554 13.5052C17.1071 16.6969 22.7699 16.4793 27.1259 9.44315Z" fill="url(#paint1_linear)"/>
<defs>
<linearGradient id="paint0_linear" x1="26.8048" y1="28.4768" x2="11.7952" y2="19.8445" gradientUnits="userSpaceOnUse">
<stop stop-color="white" stop-opacity="0.4"/>
<stop offset="1" stop-color="white"/>
</linearGradient>
<linearGradient id="paint1_linear" x1="5.19119" y1="2.51384" x2="20.2007" y2="11.1462" gradientUnits="userSpaceOnUse">
<stop offset="0.000329443" stop-color="white" stop-opacity="0.5"/>
<stop offset="1" stop-color="white"/>
</linearGradient>
</defs>
</svg>
