<?xml version="1.0" encoding="UTF-8" standalone="no"?>
<svg width="256px" height="256px" viewBox="0 0 256 256" version="1.1" xmlns="http://www.w3.org/2000/svg" xmlns:xlink="http://www.w3.org/1999/xlink" preserveAspectRatio="xMidYMid">
	<g>
		<g>
			<path d="M239.1503,190.972623 C284.879512,114.939051 229.492397,-8.376414 128.218177,4.15159373 C36.7149306,15.463411 35.2405527,111.774038 115.883447,134.653686 C185.669889,154.470916 130.30078,198.735388 131.918626,228.212119 C133.543294,257.684414 192.587362,268.377125 239.1503,190.972623 L239.1503,190.972623 Z" fill="#ffffff"></path>
			<path d="M81.3330165,238.91094 C102.407333,233.368549 115.019058,211.712712 109.502093,190.541273 C103.985127,169.369835 82.4286336,156.699988 61.3543168,162.242379 C40.28,167.78477 27.6682749,189.440607 33.1852405,210.612045 C38.7022061,231.783484 60.2586997,244.45333 81.3330165,238.91094 L81.3330165,238.91094 Z" fill="#ffffff"></path>
			<path d="M23.7809019,90.9691002 C9.59172568,92.3489356 -0.795036493,105.01134 0.578459951,119.265905 C1.95456394,133.530418 14.5583523,143.973154 28.7500001,142.592668 C42.937113,141.194773 53.3325821,128.53539 51.9534851,114.27964 C50.5745015,100.034489 37.9725497,89.5886134 23.7809019,90.9691002 L23.7809019,90.9691002 Z" fill="#ffffff"></path>
			<path d="M239.343794,187.560035 C284.78563,111.658458 229.749583,-11.4418791 129.117286,1.06427188 C38.1940324,12.3563548 36.7271631,108.502105 116.858912,131.341837 C186.203014,151.124495 131.184859,195.311745 132.793101,224.739538 C134.409298,254.157274 193.075994,264.829487 239.343794,187.560035 L239.343794,187.560035 Z" fill="#FFFFFF"></path>
			<path d="M81.3225018,235.830867 C102.31319,230.288476 114.874869,208.632639 109.379796,187.461201 C103.884723,166.289762 82.4137712,153.619916 61.4230826,159.162306 C40.4323941,164.704697 27.8707156,186.360534 33.3657885,207.531973 C38.8608613,228.703411 60.3318132,241.373258 81.3225018,235.830867 L81.3225018,235.830867 Z" fill="#FFFFFF"></path>
			<path d="M23.9987528,87.8890228 C9.86590541,89.2688582 -0.479639458,101.931262 0.888406604,116.185825 C2.25839492,130.44785 14.8128232,140.893077 28.9456932,139.513242 C43.0789697,138.114694 53.4325546,125.452825 52.056446,111.197727 C50.6853962,96.9519243 38.1340845,86.508536 23.9987528,87.8890228 L23.9987528,87.8890228 Z" fill="#FFFFFF"></path>
		</g>
	</g>
</svg>
